<svg version="1.1" id="Layer_1" xmlns="http://www.w3.org/2000/svg" xmlns:xlink="http://www.w3.org/1999/xlink" x="0px" y="0px"
	 width="100%" viewBox="0 0 1024 1024" enable-background="new 0 0 1024 1024" xml:space="preserve">
<path fill="#000000" opacity="1.000000" stroke="none" 
	d="
M396.054077,829.425415 
	C392.713684,819.345825 395.435730,811.123901 402.105408,803.805969 
	C409.619720,795.561279 419.521606,791.123352 429.326752,786.526794 
	C432.642090,784.972534 435.928497,783.117188 439.438293,782.262024 
	C450.079010,779.669373 449.659698,770.654114 452.058167,762.529846 
	C443.415314,762.000305 435.474792,762.029480 427.559967,761.552429 
	C398.489288,759.800232 370.356964,753.774597 342.775635,744.718567 
	C326.876556,739.498230 311.842468,732.424255 297.685089,723.554993 
	C293.690308,721.052368 291.806122,721.687744 289.889252,725.952576 
	C280.314117,747.256165 267.357849,766.338928 251.104355,783.112305 
	C245.155487,789.251465 238.304459,794.264771 230.183884,797.308228 
	C216.951660,802.267517 205.404831,799.256165 200.372940,784.873474 
	C200.161575,784.269348 199.727829,783.743103 199.171051,782.794373 
	C194.307388,784.666321 190.174576,787.835327 185.355957,789.613525 
	C176.998444,792.697510 168.824142,792.996460 160.688828,789.195007 
	C150.356293,784.366882 146.170624,773.916565 150.314484,763.348999 
	C151.283875,760.876892 152.475662,758.486389 153.659241,756.105164 
	C155.114899,753.176514 154.824966,751.652344 151.044144,751.157043 
	C144.949478,750.358643 139.453110,748.135986 135.997894,742.495483 
	C130.755554,733.937744 131.747772,723.391296 138.364594,715.614502 
	C143.293961,709.820923 149.560349,706.228210 156.663803,704.007263 
	C165.863403,701.130981 175.062256,698.200989 184.578049,696.507996 
	C187.844055,695.926941 189.837540,694.447571 190.723343,691.029480 
	C196.566895,668.480225 206.120682,647.467102 217.508972,627.235901 
	C218.546402,625.392944 218.694824,623.617371 218.150040,621.509888 
	C213.613098,603.958435 210.201874,586.210388 209.748169,568.023560 
	C209.668152,564.815857 207.486969,564.266052 205.307053,563.525513 
	C180.968262,555.258545 158.523804,543.424194 138.261017,527.596741 
	C110.336479,505.784546 91.419785,477.963593 85.161682,442.847870 
	C80.090088,414.389923 81.982384,386.161011 93.869347,359.274139 
	C99.233238,347.141724 106.323227,335.906128 116.087296,326.955139 
	C123.875870,319.815155 127.177551,310.520294 131.303223,301.512360 
	C154.807480,250.193619 193.891006,218.449066 249.475327,207.641800 
	C289.519226,199.856049 327.762390,207.535553 365.094025,221.993744 
	C370.056976,223.915878 375.025604,225.919281 379.731018,228.382751 
	C384.138977,230.690460 388.569855,231.636566 393.552460,231.759293 
	C422.374786,232.469086 450.065643,238.237015 475.494873,252.288528 
	C511.542786,272.207611 534.324524,302.985748 547.325073,341.572418 
	C553.465576,359.798035 557.119629,378.436768 557.414978,397.706329 
	C557.444824,399.654266 558.054749,401.593353 558.483826,404.040436 
	C568.597534,403.169312 578.474609,402.454071 588.320618,401.438080 
	C602.300049,399.995605 616.254639,400.324158 630.180359,401.828552 
	C650.472778,404.020782 670.013367,409.271271 688.787781,417.227173 
	C695.677612,420.146790 702.379944,423.542511 709.015686,427.011993 
	C711.835754,428.486420 713.908569,428.181702 716.210938,426.207306 
	C739.442871,406.285217 754.831543,381.850067 758.671265,351.078705 
	C764.027405,308.155426 752.250244,270.041534 725.243225,236.543335 
	C700.804382,206.230560 668.926453,186.067673 633.850342,170.392822 
	C624.266724,166.110123 614.459961,162.468750 604.191711,160.130905 
	C599.706238,159.109680 595.816345,156.973984 592.868225,153.283691 
	C587.448181,146.499237 588.620300,137.201920 595.768127,132.288544 
	C603.372009,127.061707 612.205566,124.695625 621.096619,123.792183 
	C695.503479,116.231606 759.770630,139.418533 814.900085,189.034088 
	C863.801880,233.044800 893.741272,288.101532 907.978333,351.966278 
	C911.483582,367.689941 913.336243,383.662811 914.585083,399.773712 
	C916.034851,418.477753 915.598633,437.067596 913.132141,455.535461 
	C909.304321,484.196350 901.246399,511.724670 888.828308,537.934082 
	C878.082336,560.614502 864.938477,581.800232 849.553040,601.588318 
	C846.936829,604.953125 846.899536,607.534790 848.734497,611.370300 
	C855.911926,626.373047 859.758057,642.210938 860.430969,658.948792 
	C861.436523,683.958557 856.379456,707.409607 844.185303,729.291870 
	C841.567932,733.988770 841.465454,739.212708 841.461914,744.317566 
	C841.451477,759.317871 839.457336,773.888672 832.180176,787.224304 
	C825.898315,798.736023 816.822876,806.453857 802.859436,806.317444 
	C794.283752,806.233704 788.242615,801.627014 783.470398,794.405457 
	C780.487427,797.596802 777.806702,800.502014 775.085388,803.368591 
	C769.233215,809.533325 761.997131,813.628479 753.626770,813.947998 
	C742.297302,814.380493 736.289673,810.258667 732.762878,797.436523 
	C732.462341,796.343994 732.885315,795.075500 731.681824,793.791687 
	C727.583191,794.761658 723.266968,795.767456 718.959290,796.808411 
	C716.318726,797.446472 713.658142,797.395447 711.013611,796.994141 
	C702.441895,795.693115 695.050537,792.278381 692.330139,783.397217 
	C689.334961,773.619263 692.770203,765.133972 699.195068,757.589783 
	C709.038269,746.031738 720.594238,736.143982 730.827881,724.970032 
	C733.055054,722.538208 735.318848,720.139954 737.884521,717.383850 
	C733.162048,714.035706 728.902649,710.910706 724.523621,707.963379 
	C722.796082,706.800659 721.354980,708.317383 719.998230,709.142151 
	C691.879883,726.236938 661.630554,738.081482 629.698669,745.741516 
	C613.057495,749.733521 596.210754,752.606812 579.183350,754.350098 
	C576.148682,754.660767 574.385681,755.844299 573.750732,759.029907 
	C569.409729,780.810181 560.986694,800.932190 549.232971,819.760803 
	C545.164062,826.278992 543.771362,834.032715 540.660217,841.029297 
	C535.796997,851.965942 529.685242,861.902466 519.834351,869.182922 
	C510.910767,875.777832 501.050293,877.958435 490.229706,876.095764 
	C481.942017,874.669067 478.004303,868.777405 475.923828,861.374390 
	C473.451080,861.393738 472.465027,863.136353 471.110840,864.247314 
	C461.973297,871.743958 451.632996,875.865356 439.728882,874.436157 
	C426.507935,872.848816 420.297363,863.737183 423.004059,850.726318 
	C423.604675,847.839294 424.887848,845.071289 424.675018,842.013977 
	C413.198822,842.371399 402.695679,840.748413 396.054077,829.425415 
M164.175156,283.622162 
	C156.536423,294.616272 150.646973,306.563873 145.283417,318.769592 
	C142.771942,324.484894 139.576126,329.544464 135.195145,334.074738 
	C125.073486,344.541351 116.458313,356.102386 110.306259,369.452423 
	C102.830109,385.675781 101.966415,402.793091 102.274071,420.235229 
	C102.851662,452.980774 116.606110,479.703857 139.701920,501.936981 
	C160.319061,521.784058 185.152023,534.897278 211.810471,544.680725 
	C219.603287,547.540649 227.701202,549.558411 235.575287,552.211426 
	C241.106201,554.074951 243.156982,557.755432 242.274170,563.466064 
	C241.477127,568.621826 237.453018,569.700256 233.199417,570.490479 
	C231.441971,570.816956 229.540558,569.715820 227.823364,571.079346 
	C226.779984,573.397583 228.219696,575.593079 228.328430,577.865051 
	C229.292313,598.003967 234.083420,617.367493 242.151062,635.704224 
	C258.409790,672.658142 286.967072,697.928101 322.471100,715.247559 
	C361.582397,734.326660 403.242706,743.575989 446.930267,742.934937 
	C454.942993,742.817322 455.661499,742.231689 455.605774,733.969421 
	C455.502106,718.595276 453.365173,703.522949 448.691101,688.843079 
	C447.034210,683.639343 449.184662,677.603638 453.242706,675.996338 
	C457.994232,674.114258 462.913605,676.373779 465.088135,682.284546 
	C473.203979,704.344788 475.732056,727.153015 472.827087,750.442749 
	C471.219482,763.331177 467.109650,775.699707 463.824890,788.236389 
	C462.721893,792.446045 460.534058,794.771912 456.648590,796.311035 
	C446.132599,800.476990 435.719452,804.901672 425.243652,809.170105 
	C420.725708,811.010925 417.261322,813.950684 415.211060,818.408936 
	C413.559723,821.999817 414.838409,824.212708 418.735352,824.635132 
	C422.995483,825.096985 427.009583,824.153809 430.858887,822.390869 
	C437.365540,819.410889 443.785858,816.224670 450.391510,813.484558 
	C454.915436,811.607971 456.786804,813.051086 457.451843,817.871826 
	C458.234314,823.543396 456.273102,828.367126 453.018677,832.773621 
	C450.446869,836.255859 447.669952,839.585938 445.025513,843.015503 
	C442.846405,845.841797 441.524963,848.977966 441.278656,852.617859 
	C441.010864,856.574158 442.999969,857.299988 446.209137,856.355530 
	C447.795044,855.888733 449.315247,855.150574 450.805389,854.414185 
	C461.269592,849.243042 469.946930,841.815430 477.614044,833.115356 
	C480.042419,830.359863 482.551697,827.660645 485.809265,825.865051 
	C488.942291,824.138062 492.181702,823.927979 495.232758,826.036682 
	C498.440033,828.253540 498.679535,831.405334 497.890472,834.938354 
	C496.662415,840.437256 495.505615,845.956604 494.510010,851.501587 
	C493.423431,857.553345 495.839935,859.655640 501.703705,857.641174 
	C511.022186,854.439941 516.208069,846.896912 520.857239,838.861084 
	C525.707031,830.478210 528.326843,821.093018 533.001526,812.587708 
	C548.931946,783.602783 560.057617,753.348816 556.743347,719.369995 
	C554.803894,699.485962 548.864380,681.329773 535.515320,666.061646 
	C532.326904,662.414795 531.700378,657.035095 534.169922,653.797852 
	C536.601013,650.611023 542.104614,650.109741 546.497864,652.813538 
	C549.813416,654.854065 552.347351,657.782654 554.591492,660.888672 
	C567.942383,679.367310 574.375000,700.177368 575.389221,722.825562 
	C575.571716,726.900696 576.229675,730.954590 576.701660,735.328857 
	C624.256714,730.702087 668.470642,717.243530 709.757568,693.622559 
	C709.205139,692.339417 709.002747,691.508728 708.544617,690.858215 
	C698.887695,677.148499 695.103210,661.689148 695.473999,645.190735 
	C696.122314,616.351013 707.871460,592.814880 730.374451,574.799438 
	C735.686462,570.546814 741.441589,566.781677 748.299744,565.221497 
	C753.323914,564.078552 758.234802,565.559998 759.616089,569.140991 
	C761.374573,573.700195 759.249329,577.208313 755.851196,580.110046 
	C753.556335,582.069702 750.918884,583.487915 748.175354,584.733398 
	C744.058167,586.602600 740.360901,589.053223 736.976135,592.117981 
	C728.467407,599.822327 723.372986,609.708984 718.785339,619.922974 
	C710.822327,637.651917 711.772949,655.283569 720.668335,672.259338 
	C730.534302,691.087219 747.101074,701.688538 766.963257,707.674255 
	C773.097046,709.522766 775.873169,712.661926 775.250916,717.660522 
	C774.544006,723.338989 770.885315,726.647461 764.404053,726.228943 
	C758.852356,725.870483 755.015137,728.157043 751.098083,731.627747 
	C740.368469,741.134827 731.486389,752.493835 720.499817,761.741699 
	C717.727295,764.075317 715.505249,767.092224 713.178833,769.917419 
	C711.395874,772.082642 710.296692,774.853210 711.841980,777.316345 
	C713.588257,780.099854 716.659241,778.912598 719.157959,778.250000 
	C721.731201,777.567627 724.079102,776.247253 726.251587,774.648254 
	C732.040771,770.387207 737.451111,765.762756 741.912292,760.042969 
	C744.434753,756.808838 747.959839,755.185608 752.066040,756.651978 
	C756.112610,758.096985 756.215027,761.751709 756.363525,765.366699 
	C756.713013,773.875977 753.199585,781.633972 751.783936,789.795959 
	C751.319275,792.475342 751.045471,795.014099 753.365417,797.133362 
	C758.047363,795.264221 761.079651,791.610229 763.781921,787.875366 
	C768.461792,781.407104 772.772766,774.666992 777.111450,767.958801 
	C779.938354,763.587708 783.468018,760.325989 788.696960,759.137268 
	C794.343506,757.853760 796.289612,759.046875 797.424500,764.681824 
	C798.668091,770.856079 798.664612,777.232971 800.494141,783.314331 
	C801.865906,787.874084 803.780579,788.747986 807.767456,786.209167 
	C811.022217,784.136536 813.752136,781.491455 815.527649,777.929932 
	C820.471863,768.011902 821.781494,757.425232 822.205383,746.489502 
	C822.516968,738.451599 820.805725,729.804077 825.397827,722.552551 
	C833.201965,710.228943 837.803772,696.944336 840.093811,682.611450 
	C843.515381,661.197083 840.847290,640.589233 833.009338,620.510010 
	C830.504822,614.094055 826.233337,608.673950 823.065674,602.646851 
	C819.556641,595.970581 822.315979,591.087463 829.689453,590.730591 
	C832.635742,590.588135 834.216187,589.061768 835.693054,586.950195 
	C843.136658,576.307739 850.565796,565.663879 857.147217,554.444214 
	C884.253662,508.234100 897.919434,458.730164 894.850037,404.850586 
	C893.538452,381.827423 889.564575,359.326752 883.185303,337.290649 
	C862.474731,265.749329 821.103394,209.741852 756.627136,171.679672 
	C721.158142,150.741333 682.533020,140.867142 641.344604,141.471771 
	C634.189453,141.576828 626.965942,142.369598 619.313110,144.565201 
	C626.246155,147.151794 632.509583,149.352890 638.671143,151.809525 
	C675.845581,166.631149 709.310547,187.128220 735.756714,217.603226 
	C770.105164,257.184204 785.861633,302.764008 778.428223,355.438446 
	C773.811890,388.150543 758.307800,414.923218 734.385559,437.206451 
	C733.230591,438.282318 731.468262,438.998291 731.581299,441.325439 
	C732.467712,442.063019 733.456360,442.925049 734.485474,443.735779 
	C742.340820,449.924133 750.156311,456.148071 756.780457,463.719086 
	C759.471069,466.794281 761.628723,470.112274 762.102417,474.241638 
	C762.543457,478.085938 760.908813,481.122253 757.695190,483.107666 
	C754.555969,485.047028 751.569885,484.003571 748.948975,481.843689 
	C747.411072,480.576385 746.019287,479.121429 744.632507,477.682709 
	C719.191528,451.287018 689.112854,432.825439 653.270203,424.192719 
	C622.501831,416.782135 591.563904,418.390228 560.563477,422.312164 
	C557.493164,422.700592 557.399597,424.597900 557.342407,426.901306 
	C556.802673,448.648163 551.845154,469.422089 542.740906,489.103455 
	C527.113770,522.885925 501.451965,546.290344 467.186432,560.305725 
	C457.860199,564.120300 448.626862,568.691772 438.096649,568.462524 
	C431.721252,568.323669 428.561432,564.592590 429.754913,558.400818 
	C430.495117,554.560608 433.600555,553.181030 436.720154,551.931946 
	C444.597168,548.778076 452.644958,546.013245 460.377808,542.543152 
	C494.020203,527.446594 518.618103,503.622833 530.293091,468.011932 
	C539.077698,441.217407 540.246948,413.699280 536.887268,385.820404 
	C534.620667,367.011414 529.789185,349.030457 521.885742,331.788330 
	C506.737427,298.740875 482.653503,275.107727 448.728455,261.824066 
	C428.671295,253.970505 407.765961,250.722290 386.245697,251.317108 
	C383.096924,251.404175 379.924042,251.607193 377.032959,249.799286 
	C368.936432,244.736160 360.092926,241.250229 351.173157,238.018021 
	C320.471222,226.892715 289.119141,220.662888 256.355530,226.364838 
	C218.222977,233.001190 187.290344,251.392960 164.175156,283.622162 
M153.155167,730.258179 
	C153.674789,733.977661 156.350906,735.373779 161.643524,734.436890 
	C170.135147,732.933777 178.610413,731.336609 187.082764,729.727356 
	C190.115540,729.151245 193.156647,728.746826 195.452652,731.323425 
	C197.963852,734.141418 197.590210,737.369995 196.395401,740.711792 
	C193.865936,747.786438 188.104553,751.777283 182.280014,755.672852 
	C177.847305,758.637451 173.384277,761.561340 169.696030,765.436462 
	C168.143814,767.067261 165.889267,769.164368 167.146545,771.437134 
	C168.414474,773.729370 171.196198,773.484253 173.853897,773.124207 
	C184.449905,771.688904 191.764984,764.856140 199.281235,758.252319 
	C203.653549,754.410828 207.390472,749.834473 212.301941,746.630981 
	C216.907333,743.627136 222.331619,744.289185 226.548538,748.087952 
	C229.836823,751.050171 230.314529,755.410156 227.645905,760.422119 
	C225.771805,763.941895 223.278961,767.167603 221.710144,770.804077 
	C220.294174,774.086243 218.180923,777.717590 221.436630,781.700256 
	C228.105255,779.273132 233.369720,775.123901 238.162643,770.189880 
	C254.051147,753.833740 264.897919,734.221191 274.817291,713.970215 
	C276.508240,710.518066 276.096954,708.508606 272.948425,706.072327 
	C256.426025,693.288147 242.848831,677.941467 233.121170,659.303955 
	C231.347519,655.905823 230.054779,652.111816 226.911774,648.759644 
	C218.152542,667.076660 210.121796,684.916382 207.335205,704.612305 
	C206.423950,711.053284 204.130402,713.935974 198.619232,714.226135 
	C191.123642,714.620789 183.811005,716.179138 176.497284,717.542053 
	C167.681473,719.184937 158.737762,721.111816 153.155167,730.258179 
z"/>
<path fill="#000000" opacity="1.000000" stroke="none" 
	d="
M243.182800,522.903137 
	C222.737213,508.424866 212.516083,487.975769 206.692825,464.734802 
	C203.710541,452.832275 202.282608,440.845428 204.662582,428.705383 
	C206.133835,421.200653 209.223770,419.506866 216.399200,421.932739 
	C222.452408,423.979218 227.635101,427.719879 232.882538,431.239044 
	C250.316345,442.930878 269.427826,449.061646 290.462769,449.777863 
	C313.995819,450.579132 336.787781,446.529022 359.327637,440.402710 
	C370.670135,437.319794 376.588104,442.107086 375.079590,453.741699 
	C370.341125,490.287903 349.945435,516.181580 317.733978,531.885620 
	C292.005127,544.429260 266.890625,537.541138 243.182800,522.903137 
M335.930939,487.469147 
	C315.888550,475.922577 294.572571,473.871857 272.388397,479.262665 
	C263.047455,481.532562 254.649460,485.889160 247.614014,492.567535 
	C243.360382,496.605255 243.356491,498.125427 247.277802,501.923981 
	C251.362137,505.880432 255.880966,509.220581 260.913757,511.921844 
	C290.030334,527.549438 317.315399,518.897156 337.174316,494.668304 
	C339.030823,492.403320 340.484741,489.748291 335.930939,487.469147 
z"/>
<path fill="#000000" opacity="1.000000" stroke="none" 
	d="
M453.178467,378.694641 
	C451.721954,387.337067 450.218506,395.493103 445.815704,402.777710 
	C439.050049,413.971832 430.214783,422.791321 417.260529,426.248718 
	C396.417938,431.811462 376.664490,420.922668 369.791656,399.578430 
	C360.522644,370.792603 378.597260,339.225739 407.024628,332.570587 
	C423.828857,328.636475 439.620758,336.756470 447.604126,353.200745 
	C451.442627,361.107452 452.937805,369.544037 453.178467,378.694641 
M430.207001,373.420868 
	C430.337799,371.441528 430.735962,369.436584 430.549072,367.487701 
	C429.996887,361.728302 423.953217,356.878998 418.778259,357.836517 
	C413.501099,358.812927 408.984222,363.654602 408.622559,368.722443 
	C408.266052,373.718079 412.641357,379.864716 417.594147,381.326172 
	C421.889832,382.593719 426.315918,380.011871 430.207001,373.420868 
z"/>
<path fill="#000000" opacity="1.000000" stroke="none" 
	d="
M194.194550,394.110657 
	C174.263687,389.619904 161.710114,374.295929 161.656662,354.102142 
	C161.597580,331.784882 170.552032,314.346558 191.083572,304.242859 
	C210.354614,294.759399 227.779602,301.368713 236.833817,320.905121 
	C250.400345,350.177734 228.089767,392.559967 194.194550,394.110657 
M205.342712,345.075714 
	C210.763367,349.952148 215.899139,349.578766 220.729370,343.957123 
	C224.492691,339.577148 224.642853,332.877197 221.079834,328.319489 
	C218.084503,324.487946 212.327606,323.261932 207.500885,325.427734 
	C203.566467,327.193176 201.320389,333.391571 202.766724,338.929749 
	C203.264267,340.834900 204.169098,342.633667 205.342712,345.075714 
z"/>
<path fill="#000000" opacity="1.000000" stroke="none" 
	d="
M629.349670,444.635620 
	C641.996338,457.495728 651.171387,471.923706 653.864868,489.715973 
	C654.830078,496.091217 655.262024,502.648651 652.929871,508.926605 
	C651.100464,513.851013 647.466858,516.160278 642.954529,515.253174 
	C638.084595,514.274170 637.809265,510.519684 637.599976,506.438263 
	C636.377686,482.599457 625.307495,464.049744 606.522705,449.872864 
	C600.549500,445.364838 599.496826,443.254578 602.111450,438.097931 
	C604.340637,433.701508 608.530212,432.639587 614.668884,434.783936 
	C620.313599,436.755707 624.799438,440.411346 629.349670,444.635620 
z"/>
<path fill="#000000" opacity="1.000000" stroke="none" 
	d="
M680.214172,473.774353 
	C677.196533,469.907776 673.778381,467.059875 669.874390,464.728210 
	C668.322571,463.801392 666.798767,462.698639 665.569763,461.387604 
	C663.076660,458.728210 662.506042,455.533447 663.933716,452.147949 
	C665.341003,448.811035 668.122314,447.529419 671.568909,447.686371 
	C681.691956,448.147308 689.057068,453.790344 694.997131,461.212585 
	C703.472229,471.802368 708.327026,484.087677 710.082581,497.564941 
	C710.541748,501.090363 709.861694,504.532532 709.250977,507.961029 
	C708.603271,511.597198 706.604553,514.000366 702.670410,514.303162 
	C698.755066,514.604553 696.196228,512.414612 694.970764,509.144470 
	C693.522949,505.281281 692.841431,501.136322 691.729736,497.140747 
	C689.395447,488.751221 686.141541,480.798431 680.214172,473.774353 
z"/>
<path fill="#000000" opacity="1.000000" stroke="none" 
	d="
M308.381897,409.105530 
	C311.273804,409.071136 313.736969,409.394470 315.711273,411.113556 
	C319.049255,414.019958 319.559052,418.769775 316.932709,421.726044 
	C314.127960,424.883209 307.778076,425.292114 304.701111,422.513763 
	C301.843109,419.933075 301.761475,414.154388 304.681610,411.278046 
	C305.588501,410.384705 306.883057,409.884857 308.381897,409.105530 
z"/>
<path fill="#000000" opacity="1.000000" stroke="none" 
	d="
M237.770050,402.249634 
	C240.630753,397.566315 244.569016,396.374084 248.143097,398.712280 
	C251.530334,400.928162 253.105209,407.621979 250.737823,410.710510 
	C248.241623,413.967072 245.121216,413.719940 241.987366,411.570099 
	C238.872940,409.433594 237.397858,406.467621 237.770050,402.249634 
z"/>
</svg>